<svg xmlns="http://www.w3.org/2000/svg" width="20" height="21" viewBox="0 0 20 21" fill="none">
  <path d="M9.99999 6.33317V10.4998V6.33317ZM9.99999 10.4998V14.6665V10.4998ZM9.99999 10.4998H5.83332H9.99999ZM9.99999 10.4998H14.1667H9.99999ZM18.3333 10.4998C18.3333 15.1022 14.6023 18.8332 9.99999 18.8332C5.39761 18.8332 1.66666 15.1022 1.66666 10.4998C1.66666 5.89746 5.39761 2.1665 9.99999 2.1665C14.6023 2.1665 18.3333 5.89746 18.3333 10.4998Z" fill="white"/>
  <path d="M9.99999 6.33317V10.4998M9.99999 10.4998V14.6665M9.99999 10.4998H5.83332M9.99999 10.4998H14.1667M18.3333 10.4998C18.3333 15.1022 14.6023 18.8332 9.99999 18.8332C5.39761 18.8332 1.66666 15.1022 1.66666 10.4998C1.66666 5.89746 5.39761 2.1665 9.99999 2.1665C14.6023 2.1665 18.3333 5.89746 18.3333 10.4998Z" stroke="#F17CBB" stroke-width="1.5" stroke-linecap="round" stroke-linejoin="round"/>
</svg>