<svg xmlns="http://www.w3.org/2000/svg" width="28" height="28" viewBox="0 0 28 28" fill="none">
  <path d="M26.25 7C26.25 6.07174 25.8813 5.1815 25.2249 4.52512C24.5685 3.86875 23.6783 3.5 22.75 3.5H21.875V2.64961C21.875 2.17875 21.513 1.77461 21.0421 1.75109C20.9238 1.74539 20.8056 1.76377 20.6946 1.80511C20.5836 1.84646 20.4821 1.90991 20.3964 1.99162C20.3106 2.07333 20.2424 2.1716 20.1957 2.28047C20.1491 2.38934 20.125 2.50655 20.125 2.625V3.5H7.875V2.64961C7.875 2.17875 7.51297 1.77461 7.04211 1.75109C6.9238 1.74539 6.80557 1.76377 6.69457 1.80511C6.58358 1.84646 6.48213 1.90991 6.39638 1.99162C6.31063 2.07333 6.24237 2.1716 6.19572 2.28047C6.14907 2.38934 6.12501 2.50655 6.125 2.625V3.5H5.25C4.32174 3.5 3.4315 3.86875 2.77513 4.52512C2.11875 5.1815 1.75 6.07174 1.75 7V7.65625C1.75 7.71426 1.77305 7.7699 1.81407 7.81093C1.85509 7.85195 1.91073 7.875 1.96875 7.875H26.0312C26.0893 7.875 26.1449 7.85195 26.1859 7.81093C26.227 7.7699 26.25 7.71426 26.25 7.65625V7ZM1.75 22.75C1.75 23.6783 2.11875 24.5685 2.77513 25.2249C3.4315 25.8812 4.32174 26.25 5.25 26.25H22.75C23.6783 26.25 24.5685 25.8812 25.2249 25.2249C25.8813 24.5685 26.25 23.6783 26.25 22.75V9.78906C26.25 9.74555 26.2327 9.70382 26.2019 9.67305C26.1712 9.64228 26.1294 9.625 26.0859 9.625H1.91406C1.87055 9.625 1.82882 9.64228 1.79805 9.67305C1.76729 9.70382 1.75 9.74555 1.75 9.78906V22.75ZM20.5625 11.375C20.8221 11.375 21.0758 11.452 21.2917 11.5962C21.5075 11.7404 21.6758 11.9454 21.7751 12.1852C21.8744 12.4251 21.9004 12.689 21.8498 12.9436C21.7991 13.1982 21.6741 13.432 21.4906 13.6156C21.307 13.7991 21.0732 13.9241 20.8186 13.9748C20.564 14.0254 20.3001 13.9994 20.0602 13.9001C19.8204 13.8007 19.6154 13.6325 19.4712 13.4167C19.327 13.2008 19.25 12.9471 19.25 12.6875C19.25 12.3394 19.3883 12.0056 19.6344 11.7594C19.8806 11.5133 20.2144 11.375 20.5625 11.375ZM20.5625 15.75C20.8221 15.75 21.0758 15.827 21.2917 15.9712C21.5075 16.1154 21.6758 16.3204 21.7751 16.5602C21.8744 16.8001 21.9004 17.064 21.8498 17.3186C21.7991 17.5732 21.6741 17.807 21.4906 17.9906C21.307 18.1741 21.0732 18.2991 20.8186 18.3498C20.564 18.4004 20.3001 18.3744 20.0602 18.2751C19.8204 18.1757 19.6154 18.0075 19.4712 17.7917C19.327 17.5758 19.25 17.3221 19.25 17.0625C19.25 16.7144 19.3883 16.3806 19.6344 16.1344C19.8806 15.8883 20.2144 15.75 20.5625 15.75ZM16.1875 11.375C16.4471 11.375 16.7008 11.452 16.9167 11.5962C17.1325 11.7404 17.3008 11.9454 17.4001 12.1852C17.4994 12.4251 17.5254 12.689 17.4748 12.9436C17.4241 13.1982 17.2991 13.432 17.1156 13.6156C16.932 13.7991 16.6982 13.9241 16.4436 13.9748C16.189 14.0254 15.9251 13.9994 15.6852 13.9001C15.4454 13.8007 15.2404 13.6325 15.0962 13.4167C14.952 13.2008 14.875 12.9471 14.875 12.6875C14.875 12.3394 15.0133 12.0056 15.2594 11.7594C15.5056 11.5133 15.8394 11.375 16.1875 11.375ZM16.1875 15.75C16.4471 15.75 16.7008 15.827 16.9167 15.9712C17.1325 16.1154 17.3008 16.3204 17.4001 16.5602C17.4994 16.8001 17.5254 17.064 17.4748 17.3186C17.4241 17.5732 17.2991 17.807 17.1156 17.9906C16.932 18.1741 16.6982 18.2991 16.4436 18.3498C16.189 18.4004 15.9251 18.3744 15.6852 18.2751C15.4454 18.1757 15.2404 18.0075 15.0962 17.7917C14.952 17.5758 14.875 17.3221 14.875 17.0625C14.875 16.7144 15.0133 16.3806 15.2594 16.1344C15.5056 15.8883 15.8394 15.75 16.1875 15.75ZM16.1875 20.125C16.4471 20.125 16.7008 20.202 16.9167 20.3462C17.1325 20.4904 17.3008 20.6954 17.4001 20.9352C17.4994 21.1751 17.5254 21.439 17.4748 21.6936C17.4241 21.9482 17.2991 22.182 17.1156 22.3656C16.932 22.5491 16.6982 22.6741 16.4436 22.7248C16.189 22.7754 15.9251 22.7494 15.6852 22.6501C15.4454 22.5507 15.2404 22.3825 15.0962 22.1667C14.952 21.9508 14.875 21.6971 14.875 21.4375C14.875 21.0894 15.0133 20.7556 15.2594 20.5094C15.5056 20.2633 15.8394 20.125 16.1875 20.125ZM11.8125 15.75C12.0721 15.75 12.3258 15.827 12.5417 15.9712C12.7575 16.1154 12.9258 16.3204 13.0251 16.5602C13.1244 16.8001 13.1504 17.064 13.0998 17.3186C13.0491 17.5732 12.9241 17.807 12.7406 17.9906C12.557 18.1741 12.3232 18.2991 12.0686 18.3498C11.814 18.4004 11.5501 18.3744 11.3102 18.2751C11.0704 18.1757 10.8654 18.0075 10.7212 17.7917C10.577 17.5758 10.5 17.3221 10.5 17.0625C10.5 16.7144 10.6383 16.3806 10.8844 16.1344C11.1306 15.8883 11.4644 15.75 11.8125 15.75ZM11.8125 20.125C12.0721 20.125 12.3258 20.202 12.5417 20.3462C12.7575 20.4904 12.9258 20.6954 13.0251 20.9352C13.1244 21.1751 13.1504 21.439 13.0998 21.6936C13.0491 21.9482 12.9241 22.182 12.7406 22.3656C12.557 22.5491 12.3232 22.6741 12.0686 22.7248C11.814 22.7754 11.5501 22.7494 11.3102 22.6501C11.0704 22.5507 10.8654 22.3825 10.7212 22.1667C10.577 21.9508 10.5 21.6971 10.5 21.4375C10.5 21.0894 10.6383 20.7556 10.8844 20.5094C11.1306 20.2633 11.4644 20.125 11.8125 20.125ZM7.4375 15.75C7.69709 15.75 7.95085 15.827 8.16669 15.9712C8.38252 16.1154 8.55075 16.3204 8.65009 16.5602C8.74943 16.8001 8.77542 17.064 8.72478 17.3186C8.67414 17.5732 8.54913 17.807 8.36558 17.9906C8.18202 18.1741 7.94816 18.2991 7.69356 18.3498C7.43896 18.4004 7.17506 18.3744 6.93523 18.2751C6.6954 18.1757 6.49042 18.0075 6.3462 17.7917C6.20198 17.5758 6.125 17.3221 6.125 17.0625C6.125 16.7144 6.26328 16.3806 6.50942 16.1344C6.75556 15.8883 7.0894 15.75 7.4375 15.75ZM7.4375 20.125C7.69709 20.125 7.95085 20.202 8.16669 20.3462C8.38252 20.4904 8.55075 20.6954 8.65009 20.9352C8.74943 21.1751 8.77542 21.439 8.72478 21.6936C8.67414 21.9482 8.54913 22.182 8.36558 22.3656C8.18202 22.5491 7.94816 22.6741 7.69356 22.7248C7.43896 22.7754 7.17506 22.7494 6.93523 22.6501C6.6954 22.5507 6.49042 22.3825 6.3462 22.1667C6.20198 21.9508 6.125 21.6971 6.125 21.4375C6.125 21.0894 6.26328 20.7556 6.50942 20.5094C6.75556 20.2633 7.0894 20.125 7.4375 20.125Z" fill="white"/>
</svg>