<svg xmlns="http://www.w3.org/2000/svg" width="31" height="30" viewBox="0 0 31 30" fill="none">
  <path d="M4.08331 12.5H26.5833M20.3333 2.5V7.5M10.3333 2.5V7.5M15.3333 16.25V16.2256M15.3333 20.0245V20M11.5833 20.0245V20M7.83329 20.0244V20M11.5833 23.75V23.7256M7.83331 23.75V23.7256M19.0833 16.2744V16.25M19.0833 20.0244V20M15.3333 23.75V23.7256M22.8333 16.2744V16.25M22.8333 20V19.9756M19.0833 23.75V23.7256M6.58331 27.5H24.0833C25.4641 27.5 26.5833 26.3807 26.5833 25V7.5C26.5833 6.11929 25.4641 5 24.0833 5H6.58331C5.2026 5 4.08331 6.11929 4.08331 7.5V25C4.08331 26.3807 5.2026 27.5 6.58331 27.5Z" stroke="white" stroke-width="2" stroke-linecap="round" stroke-linejoin="round"/>
</svg>