<svg xmlns="http://www.w3.org/2000/svg" width="32" height="32" viewBox="0 0 32 32" fill="none">
  <rect width="32" height="32" fill="white"/>
  <path d="M9.33329 16C9.33329 16.7364 8.73633 17.3334 7.99996 17.3334C7.26359 17.3334 6.66663 16.7364 6.66663 16C6.66663 15.2636 7.26359 14.6667 7.99996 14.6667C8.73633 14.6667 9.33329 15.2636 9.33329 16Z" fill="black" stroke="black" stroke-width="1.33333" stroke-linecap="round" stroke-linejoin="round"/>
  <path d="M17.3333 16C17.3333 16.7364 16.7364 17.3334 16 17.3334C15.2636 17.3334 14.6666 16.7364 14.6666 16C14.6666 15.2636 15.2636 14.6667 16 14.6667C16.7364 14.6667 17.3333 15.2636 17.3333 16Z" fill="black" stroke="black" stroke-width="1.33333" stroke-linecap="round" stroke-linejoin="round"/>
  <path d="M25.3333 16C25.3333 16.7364 24.7364 17.3334 24 17.3334C23.2636 17.3334 22.6666 16.7364 22.6666 16C22.6666 15.2636 23.2636 14.6667 24 14.6667C24.7364 14.6667 25.3333 15.2636 25.3333 16Z" fill="black" stroke="black" stroke-width="1.33333" stroke-linecap="round" stroke-linejoin="round"/>
</svg>