<svg xmlns="http://www.w3.org/2000/svg" width="30" height="30" viewBox="0 0 30 30" fill="none">
  <path d="M16.25 2.56173C15.8389 2.5209 15.4219 2.5 15 2.5C14.5781 2.5 14.1611 2.5209 13.75 2.56173M2.56173 13.75C2.5209 14.1611 2.5 14.5781 2.5 15C2.5 15.4219 2.5209 15.8389 2.56173 16.25M13.75 27.4382C14.1611 27.4791 14.5781 27.5 15 27.5C15.4219 27.5 15.8389 27.4791 16.25 27.4382M27.4382 16.25C27.4791 15.8389 27.5 15.4219 27.5 15C27.5 14.5781 27.4791 14.1611 27.4382 13.75M22.3016 4.85314C21.966 4.61221 21.6154 4.38563 21.25 4.17469C20.8846 3.96375 20.5131 3.77335 20.1366 3.60314M4.85314 7.69833C4.61221 8.03396 4.38563 8.38465 4.17469 8.75C3.96375 9.11535 3.77335 9.48692 3.60314 9.86339M7.69833 25.1469C8.03398 25.3878 8.38465 25.6144 8.75 25.8254C9.11535 26.0362 9.48692 26.2266 9.86339 26.3969M25.1469 22.3016C25.3878 21.966 25.6144 21.6154 25.8254 21.25C26.0362 20.8846 26.2266 20.5131 26.3969 20.1366M26.3969 9.86351C26.2266 9.48705 26.0362 9.11547 25.8254 8.75012C25.6144 8.38476 25.3878 8.03409 25.1469 7.69845M9.8634 3.60325C9.48694 3.77348 9.11536 3.96386 8.75001 4.1748C8.38465 4.38574 8.03398 4.61234 7.69834 4.85325M3.60314 20.1367C3.77335 20.5132 3.96375 20.8847 4.17469 21.2501C4.38563 21.6155 4.61222 21.9661 4.85314 22.3018M20.1366 26.397C20.5131 26.2267 20.8846 26.0364 21.25 25.8255C21.6154 25.6145 21.966 25.3879 22.3016 25.147" stroke="#C81518" stroke-width="2" stroke-linecap="round" stroke-linejoin="round"/>
</svg>