<svg xmlns="http://www.w3.org/2000/svg" width="31" height="30" viewBox="0 0 31 30" fill="none">
  <path fill-rule="evenodd" clip-rule="evenodd" d="M20.9687 5.81244C20.7532 5.93676 20.4972 5.97039 20.2569 5.90592C20.0166 5.84146 19.8118 5.68418 19.6875 5.46869C19.5632 5.2532 19.5295 4.99715 19.594 4.75687C19.6585 4.51659 19.8157 4.31176 20.0312 4.18744L24.3612 1.68744C24.5219 1.59445 24.7065 1.55122 24.8917 1.56325C25.0769 1.57528 25.2544 1.64201 25.4016 1.75499C25.5489 1.86798 25.6593 2.02213 25.7189 2.19791C25.7784 2.3737 25.7845 2.56321 25.7362 2.74244L24.4912 7.38619L26.8612 6.01869C26.9679 5.95616 27.0859 5.91535 27.2084 5.8986C27.3309 5.88185 27.4555 5.8895 27.575 5.9211C27.6945 5.9527 27.8066 6.00763 27.9048 6.08273C28.003 6.15784 28.0854 6.25162 28.1473 6.3587C28.2091 6.46577 28.2491 6.58401 28.265 6.70662C28.281 6.82922 28.2725 6.95377 28.2401 7.07309C28.2077 7.19241 28.152 7.30414 28.0763 7.40185C28.0005 7.49957 27.9062 7.58133 27.7987 7.64244L23.4687 10.1424C23.3081 10.2354 23.1235 10.2787 22.9383 10.2666C22.7531 10.2546 22.5756 10.1879 22.4283 10.0749C22.2811 9.96191 22.1707 9.80775 22.1111 9.63197C22.0515 9.45618 22.0455 9.26667 22.0937 9.08744L23.3387 4.44369L20.9687 5.81244ZM16.3412 7.68744C16.2345 7.62588 16.141 7.54391 16.066 7.44621C15.991 7.34851 15.9359 7.23698 15.904 7.11801C15.8721 6.99903 15.8639 6.87494 15.8799 6.7528C15.896 6.63067 15.9359 6.51289 15.9975 6.40619C16.059 6.29949 16.141 6.20596 16.2387 6.13094C16.3364 6.05592 16.4479 6.00088 16.5669 5.96896C16.6859 5.93704 16.81 5.92887 16.9321 5.94491C17.0542 5.96095 17.172 6.00088 17.2787 6.06244L19.4437 7.31244C19.6043 7.40516 19.7338 7.54341 19.8158 7.70973C19.8978 7.87604 19.9287 8.06294 19.9045 8.24679C19.8802 8.43063 19.802 8.60317 19.6798 8.74257C19.5575 8.88197 19.3966 8.98198 19.2175 9.02994L17.9887 9.35994L18.1937 9.47869C18.3012 9.5398 18.3955 9.62156 18.4713 9.71928C18.547 9.81699 18.6027 9.92872 18.6351 10.048C18.6675 10.1674 18.676 10.2919 18.66 10.4145C18.6441 10.5371 18.6041 10.6554 18.5423 10.7624C18.4804 10.8695 18.398 10.9633 18.2998 11.0384C18.2016 11.1135 18.0895 11.1684 17.97 11.2C17.8505 11.2316 17.7259 11.2393 17.6034 11.2225C17.4809 11.2058 17.3629 11.165 17.2562 11.1024L15.0912 9.85244C14.9306 9.75982 14.8011 9.62166 14.719 9.45543C14.6369 9.2892 14.6059 9.10236 14.63 8.91853C14.6541 8.7347 14.7321 8.56214 14.8543 8.42267C14.9764 8.28319 15.1372 8.18306 15.3162 8.13494L16.5462 7.80494L16.3412 7.68744Z" fill="black" fill-opacity="0.27"/>
  <path fill-rule="evenodd" clip-rule="evenodd" d="M17.1062 4.0775C16.729 4.03799 16.3476 4.07511 15.9851 4.18661C15.6225 4.29812 15.2862 4.48173 14.9963 4.72641C14.7065 4.9711 14.469 5.27181 14.2982 5.61053C14.1275 5.94924 14.0269 6.31896 14.0025 6.6975C13.415 7.08829 12.9959 7.68561 12.8283 8.37097C12.6607 9.05634 12.7567 9.77967 13.0975 10.3975C13.34 10.8375 13.7 11.2137 14.1538 11.4762L16.3187 12.7262C16.72 12.958 17.1722 13.087 17.6353 13.1018C18.0984 13.1167 18.558 13.0169 18.9732 12.8113C19.3885 12.6057 19.7465 12.3007 20.0155 11.9235C20.2844 11.5462 20.456 11.1083 20.515 10.6488C20.6921 10.9826 20.9346 11.2773 21.2281 11.5153C21.5216 11.7533 21.8601 11.9297 22.2233 12.034C22.5865 12.1383 22.9669 12.1684 23.342 12.1224C23.7171 12.0764 24.079 11.9552 24.4062 11.7663L25.6262 11.0625C26.3679 12.6913 26.7511 14.4603 26.75 16.25C26.75 23.1537 21.1537 28.75 14.25 28.75C7.34625 28.75 1.75 23.1537 1.75 16.25C1.75 9.34625 7.34625 3.75 14.25 3.75C15.2333 3.75167 16.1854 3.86083 17.1062 4.0775ZM7.3075 14.065C7.45002 14.0546 7.59303 14.0768 7.72562 14.1301C7.85821 14.1834 7.97685 14.2663 8.0725 14.3725C8.6525 15.02 9.2775 15.3125 9.875 15.3125C10.2463 15.3125 10.63 15.2 11.005 14.9575C11.2342 14.8117 11.4583 14.6167 11.6775 14.3725C11.8439 14.1875 12.077 14.0762 12.3255 14.0631C12.574 14.05 12.8175 14.1361 13.0025 14.3025C13.1875 14.4689 13.2988 14.702 13.3119 14.9505C13.325 15.199 13.2389 15.4425 13.0725 15.6275C12.235 16.5562 11.1375 17.1875 9.875 17.1875C8.6125 17.1875 7.51375 16.5562 6.6775 15.6275C6.56 15.497 6.48151 15.3362 6.45095 15.1633C6.42039 14.9904 6.439 14.8124 6.50466 14.6496C6.57031 14.4867 6.68038 14.3456 6.82232 14.2422C6.96426 14.1389 7.13237 14.0775 7.3075 14.065ZM16.8225 14.3725C16.7401 14.2809 16.6405 14.2064 16.5293 14.1533C16.4181 14.1003 16.2975 14.0696 16.1745 14.0631C16.0515 14.0566 15.9283 14.0744 15.8122 14.1155C15.696 14.1565 15.5891 14.2201 15.4975 14.3025C15.4059 14.3849 15.3314 14.4845 15.2783 14.5957C15.2253 14.7069 15.1946 14.8275 15.1881 14.9505C15.175 15.199 15.2611 15.4425 15.4275 15.6275C16.265 16.5562 17.3625 17.1875 18.625 17.1875C19.8875 17.1875 20.9862 16.5562 21.8225 15.6275C21.9889 15.4425 22.075 15.199 22.0619 14.9505C22.0488 14.702 21.9375 14.4689 21.7525 14.3025C21.5675 14.1361 21.324 14.05 21.0755 14.0631C20.827 14.0762 20.5939 14.1875 20.4275 14.3725C19.8463 15.02 19.2213 15.3125 18.625 15.3125C18.0287 15.3125 17.4037 15.02 16.8225 14.3725ZM15.5 21.25C15.5 21.5815 15.3683 21.8995 15.1339 22.1339C14.8995 22.3683 14.5815 22.5 14.25 22.5C13.9185 22.5 13.6005 22.3683 13.3661 22.1339C13.1317 21.8995 13 21.5815 13 21.25C13 20.9185 13.1317 20.6005 13.3661 20.3661C13.6005 20.1317 13.9185 20 14.25 20C14.5815 20 14.8995 20.1317 15.1339 20.3661C15.3683 20.6005 15.5 20.9185 15.5 21.25Z" fill="black" fill-opacity="0.27"/>
</svg>