<svg xmlns="http://www.w3.org/2000/svg" width="32" height="32" viewBox="0 0 32 32" fill="none">
  <g clip-path="url(#clip0_121_1393)">
    <path d="M16.9427 3.05737L28.9427 15.0574C29.7827 15.8974 29.188 17.3334 28 17.3334H26.6667V25.3334C26.6667 26.3942 26.2452 27.4117 25.4951 28.1618C24.7449 28.9119 23.7275 29.3334 22.6667 29.3334H21.3333V20C21.3334 18.9798 20.9436 17.998 20.2436 17.2557C19.5437 16.5134 18.5865 16.0666 17.568 16.0067L17.3333 16H14.6667C13.6058 16 12.5884 16.4215 11.8382 17.1716C11.0881 17.9218 10.6667 18.9392 10.6667 20V29.3334H9.33333C8.27247 29.3334 7.25505 28.9119 6.50491 28.1618C5.75476 27.4117 5.33333 26.3942 5.33333 25.3334V17.3334H4C2.81333 17.3334 2.21733 15.8974 3.05733 15.0574L15.0573 3.05737C15.3074 2.80741 15.6464 2.66699 16 2.66699C16.3536 2.66699 16.6926 2.80741 16.9427 3.05737ZM17.3333 18.6667C17.687 18.6667 18.0261 18.8072 18.2761 19.0572C18.5262 19.3073 18.6667 19.6464 18.6667 20V29.3334H13.3333V20C13.3334 19.6735 13.4533 19.3583 13.6703 19.1142C13.8873 18.8702 14.1863 18.7143 14.5107 18.676L14.6667 18.6667H17.3333Z" fill="white"/>
  </g>
  <defs>
    <clipPath id="clip0_121_1393">
      <rect width="32" height="32" fill="white"/>
    </clipPath>
  </defs>
</svg>