<svg xmlns="http://www.w3.org/2000/svg" width="33" height="32" viewBox="0 0 33 32" fill="none">
  <g clip-path="url(#clip0_30_10)">
    <path d="M24.6666 4C25.7275 4 26.7449 4.42143 27.4951 5.17157C28.2452 5.92172 28.6666 6.93913 28.6666 8V24C28.6666 25.0609 28.2452 26.0783 27.4951 26.8284C26.7449 27.5786 25.7275 28 24.6666 28H8.66663C7.60576 28 6.58834 27.5786 5.8382 26.8284C5.08805 26.0783 4.66663 25.0609 4.66663 24V8C4.66663 6.93913 5.08805 5.92172 5.8382 5.17157C6.58834 4.42143 7.60576 4 8.66663 4H24.6666ZM21.6093 12.3907C21.3593 12.1407 21.0202 12.0003 20.6666 12.0003C20.3131 12.0003 19.974 12.1407 19.724 12.3907L16.6666 15.4467L14.9426 13.724C14.6926 13.474 14.3535 13.3336 14 13.3336C13.6464 13.3336 13.3073 13.474 13.0573 13.724L9.05729 17.724C8.80733 17.974 8.66691 18.3131 8.66691 18.6667C8.66691 19.0202 8.80733 19.3593 9.05729 19.6093L9.18263 19.72C9.43916 19.919 9.7595 20.0176 10.0835 19.9972C10.4076 19.9768 10.713 19.8389 10.9426 19.6093L14 16.5533L15.724 18.276L15.8493 18.3867C16.1058 18.5857 16.4262 18.6842 16.7502 18.6639C17.0742 18.6435 17.3797 18.5056 17.6093 18.276L20.6666 15.22L22.3906 16.9427C22.6421 17.1855 22.9789 17.3199 23.3285 17.3169C23.6781 17.3139 24.0125 17.1736 24.2597 16.9264C24.5069 16.6792 24.6472 16.3448 24.6502 15.9952C24.6532 15.6456 24.5188 15.3088 24.276 15.0573L21.6093 12.3907Z" fill="white"/>
  </g>
  <defs>
    <clipPath id="clip0_30_10">
      <rect width="32" height="32" fill="white" transform="translate(0.666626)"/>
    </clipPath>
  </defs>
</svg>