<svg width="126" height="38" viewBox="0 0 126 38" fill="none" xmlns="http://www.w3.org/2000/svg">
<path d="M22.2 23.2C21.5067 25.6267 20.2267 27.48 18.36 28.76C16.4933 30.0133 14.2933 30.64 11.76 30.64C8.32 30.64 5.64 29.4267 3.72 27C1.82667 24.5733 0.88 20.9067 0.88 16C0.88 14.16 1.04 12.2933 1.36 10.4C1.68 8.50667 2.24 6.8 3.04 5.28C3.84 3.73333 4.90667 2.46666 6.24 1.48C7.6 0.493331 9.30667 -2.38419e-06 11.36 -2.38419e-06C12.3733 -2.38419e-06 13.3333 0.133332 14.24 0.4C15.1467 0.666666 15.9333 1.06667 16.6 1.6C17.2933 2.10666 17.84 2.74666 18.24 3.52C18.64 4.29333 18.84 5.2 18.84 6.24C18.84 7.09333 18.68 7.77333 18.36 8.28C18.04 8.78666 17.4933 9.04 16.72 9.04C16.3467 9.04 15.9867 8.98667 15.64 8.88C15.32 8.74667 15.0533 8.56 14.84 8.32C15.08 8.13333 15.2933 7.74667 15.48 7.16C15.6933 6.57333 15.8 5.90666 15.8 5.16C15.8 3.88 15.4933 2.94667 14.88 2.36C14.2667 1.74666 13.4533 1.44 12.44 1.44C11.24 1.44 10.2 1.84 9.32 2.64C8.46667 3.41333 7.76 4.45333 7.2 5.76C6.64 7.06667 6.22667 8.54667 5.96 10.2C5.72 11.8533 5.6 13.56 5.6 15.32C5.6 17.5067 5.78667 19.3733 6.16 20.92C6.53333 22.4667 7.08 23.7333 7.8 24.72C8.52 25.7067 9.4 26.44 10.44 26.92C11.5067 27.3733 12.72 27.6 14.08 27.6C15.8133 27.6 17.2533 27.2267 18.4 26.48C19.5467 25.7067 20.48 24.48 21.2 22.8L22.2 23.2ZM82.3578 5.52C82.3578 6.58667 82.1311 7.41333 81.6778 8C81.2511 8.58667 80.6778 8.88 79.9578 8.88C79.5845 8.88 79.2645 8.81333 78.9978 8.68C78.7578 8.54666 78.5045 8.33333 78.2378 8.04C78.6111 7.77333 78.8911 7.38667 79.0778 6.88C79.2911 6.37333 79.3978 5.84 79.3978 5.28C79.3978 4.82666 79.3178 4.37333 79.1578 3.92C79.0245 3.46667 78.7978 3.06667 78.4778 2.72C78.1578 2.34667 77.7578 2.05333 77.2778 1.84C76.7978 1.6 76.2245 1.48 75.5578 1.48C74.8645 1.48 74.2378 1.61333 73.6778 1.88C73.1445 2.12 72.6911 2.46667 72.3178 2.92C71.9711 3.34667 71.7045 3.85333 71.5178 4.44C71.3311 5.02666 71.2378 5.65333 71.2378 6.32C71.2378 7.6 71.5445 8.62667 72.1578 9.4C72.7978 10.1733 73.5845 10.8267 74.5178 11.36C75.4511 11.8933 76.4645 12.4 77.5578 12.88C78.6778 13.36 79.7045 13.96 80.6378 14.68C81.5711 15.3733 82.3445 16.2667 82.9578 17.36C83.5978 18.4267 83.9178 19.8533 83.9178 21.64C83.9178 23.24 83.6511 24.6133 83.1178 25.76C82.5845 26.88 81.8778 27.7867 80.9978 28.48C80.1445 29.1733 79.1578 29.68 78.0378 30C76.9178 30.32 75.7711 30.48 74.5978 30.48C73.5578 30.48 72.5311 30.36 71.5178 30.12C70.5045 29.88 69.5978 29.5067 68.7978 29C67.9978 28.4667 67.3445 27.8 66.8378 27C66.3578 26.1733 66.1178 25.1867 66.1178 24.04C66.1178 23.3733 66.2111 22.6933 66.3978 22C66.5845 21.3067 66.8511 20.68 67.1978 20.12C67.5711 19.56 68.0245 19.1067 68.5578 18.76C69.1178 18.3867 69.7578 18.2 70.4778 18.2C71.0645 18.2 71.5578 18.36 71.9578 18.68C72.3845 19 72.7578 19.6 73.0778 20.48C72.4378 20.5067 71.9045 20.64 71.4778 20.88C71.0778 21.12 70.7578 21.4133 70.5178 21.76C70.2778 22.1067 70.1045 22.48 69.9978 22.88C69.9178 23.28 69.8778 23.6533 69.8778 24C69.8778 24.72 70.0378 25.3467 70.3578 25.88C70.6778 26.4133 71.0778 26.8667 71.5578 27.24C72.0645 27.5867 72.5978 27.8533 73.1578 28.04C73.7445 28.2 74.3045 28.28 74.8378 28.28C76.0645 28.28 77.0778 27.8133 77.8778 26.88C78.6778 25.9467 79.0778 24.6 79.0778 22.84C79.0778 21.3467 78.7845 20.1733 78.1978 19.32C77.6378 18.44 76.9178 17.7067 76.0378 17.12C75.1578 16.5333 74.2111 16.0267 73.1978 15.6C72.2111 15.1733 71.2778 14.6667 70.3978 14.08C69.5178 13.4933 68.7845 12.7467 68.1978 11.84C67.6378 10.9067 67.3578 9.66667 67.3578 8.12C67.3578 6.78667 67.5845 5.61333 68.0378 4.6C68.4911 3.58666 69.0778 2.74667 69.7978 2.08C70.5445 1.38667 71.3978 0.879998 72.3578 0.559998C73.3445 0.213332 74.3578 0.0399995 75.3978 0.0399995C75.8511 0.0399995 76.4645 0.0933321 77.2378 0.199997C78.0378 0.306664 78.8111 0.546664 79.5578 0.919998C80.3311 1.29333 80.9845 1.85333 81.5178 2.6C82.0778 3.32 82.3578 4.29333 82.3578 5.52Z" fill="#F17CBB"/>
<path d="M31.4833 14V29.328C32.0166 29.1573 32.486 28.9653 32.8913 28.752C33.318 28.5387 33.6806 28.2507 33.9793 27.888C34.2993 27.5253 34.5553 27.056 34.7473 26.48C34.9606 25.904 35.1206 25.168 35.2273 24.272H36.4113C36.2406 25.4027 36.0166 26.3307 35.7393 27.056C35.4833 27.76 35.1526 28.336 34.7473 28.784C34.3633 29.2107 33.894 29.552 33.3393 29.808C32.806 30.0427 32.1873 30.2667 31.4833 30.48V32.528C31.4833 33.5307 31.3766 34.3733 31.1633 35.056C30.95 35.76 30.6513 36.3253 30.2673 36.752C29.9046 37.2 29.478 37.52 28.9873 37.712C28.518 37.904 28.0166 38 27.4833 38C26.4166 38 25.5846 37.6907 24.9873 37.072C24.39 36.4747 24.0913 35.7387 24.0913 34.864C24.0913 34.3093 24.2086 33.808 24.4433 33.36C24.6993 32.912 25.0193 32.496 25.4033 32.112C25.8086 31.7493 26.2566 31.4187 26.7473 31.12C27.2593 30.8427 27.7713 30.5973 28.2833 30.384V28.368C27.8566 28.9867 27.366 29.4453 26.8113 29.744C26.278 30.0427 25.734 30.192 25.1793 30.192C24.5606 30.192 23.974 30.1067 23.4193 29.936C22.8646 29.7653 22.3846 29.488 21.9793 29.104C21.574 28.6987 21.254 28.1867 21.0193 27.568C20.7846 26.928 20.6673 26.1493 20.6673 25.232V14H23.8673V24.88C23.8673 25.9253 24.0486 26.672 24.4113 27.12C24.774 27.5467 25.2326 27.76 25.7873 27.76C26.086 27.76 26.3846 27.6853 26.6833 27.536C26.982 27.3867 27.2486 27.1733 27.4833 26.896C27.718 26.5973 27.91 26.2453 28.0593 25.84C28.2086 25.4347 28.2833 24.9653 28.2833 24.432V14H31.4833ZM26.8753 36.336C27.4513 36.336 27.8246 36.112 27.9953 35.664C28.1873 35.2373 28.2833 34.6507 28.2833 33.904V31.664C27.2166 32.1547 26.4593 32.6347 26.0113 33.104C25.5633 33.5947 25.3393 34.1387 25.3393 34.736C25.3393 35.2267 25.4673 35.6107 25.7233 35.888C26.0006 36.1867 26.3846 36.336 26.8753 36.336ZM42.4626 18.896C42.6332 18.7467 42.7612 18.512 42.8466 18.192C42.9532 17.8507 43.0066 17.5307 43.0066 17.232C43.0066 16.7413 42.8466 16.336 42.5266 16.016C42.2279 15.696 41.8012 15.536 41.2466 15.536C40.6706 15.536 40.1906 15.7493 39.8066 16.176C39.4226 16.6027 39.1132 17.1467 38.8786 17.808C38.6439 18.448 38.4732 19.1733 38.3666 19.984C38.2812 20.7733 38.2386 21.552 38.2386 22.32C38.2386 23.4507 38.3346 24.368 38.5266 25.072C38.7399 25.776 39.0172 26.3307 39.3586 26.736C39.6999 27.12 40.0946 27.3867 40.5426 27.536C41.0119 27.6853 41.5026 27.76 42.0146 27.76C43.1452 27.76 44.0946 27.4827 44.8626 26.928C45.6519 26.352 46.3239 25.4667 46.8786 24.272H47.9666C47.7106 25.0613 47.3479 25.8187 46.8786 26.544C46.4092 27.248 45.8652 27.8773 45.2466 28.432C44.6279 28.9653 43.9559 29.392 43.2306 29.712C42.5052 30.032 41.7479 30.192 40.9586 30.192C40.2119 30.192 39.4759 30.064 38.7506 29.808C38.0252 29.552 37.3746 29.136 36.7986 28.56C36.2226 27.9627 35.7532 27.1947 35.3906 26.256C35.0279 25.296 34.8466 24.1227 34.8466 22.736C34.8466 21.84 34.9212 20.88 35.0706 19.856C35.2412 18.8107 35.5399 17.8507 35.9666 16.976C36.4146 16.08 37.0226 15.3333 37.7906 14.736C38.5586 14.1387 39.5506 13.84 40.7666 13.84C42.1106 13.84 43.1346 14.1707 43.8386 14.832C44.5426 15.472 44.8946 16.4213 44.8946 17.68C44.8946 18.2133 44.7879 18.6613 44.5746 19.024C44.3826 19.3867 44.0732 19.568 43.6466 19.568C43.1772 19.568 42.7826 19.344 42.4626 18.896ZM50.0868 7.6V24.88C50.0868 25.0933 50.0975 25.36 50.1188 25.68C50.1401 26 50.1935 26.32 50.2788 26.64C50.3855 26.9387 50.5348 27.2053 50.7268 27.44C50.9188 27.6533 51.1855 27.76 51.5268 27.76C52.5721 27.76 53.3401 26.5973 53.8308 24.272H55.0148C54.7801 25.616 54.4815 26.6827 54.1188 27.472C53.7561 28.24 53.3721 28.8267 52.9668 29.232C52.5615 29.6373 52.1455 29.8933 51.7188 30C51.2921 30.128 50.9081 30.192 50.5668 30.192C49.8201 30.192 49.2121 30.0533 48.7428 29.776C48.2735 29.4773 47.9001 29.104 47.6228 28.656C47.3455 28.208 47.1535 27.7067 47.0468 27.152C46.9401 26.5973 46.8868 26.064 46.8868 25.552V8.048L50.0868 7.6ZM63.7771 18C63.7771 19.4933 63.1584 20.7413 61.9211 21.744C60.7051 22.7467 59.0091 23.3653 56.8331 23.6C56.9184 24.4533 57.0677 25.1467 57.2811 25.68C57.5157 26.2133 57.7931 26.64 58.1131 26.96C58.4331 27.2587 58.7957 27.472 59.2011 27.6C59.6277 27.7067 60.0651 27.76 60.5131 27.76C61.1957 27.76 61.8357 27.6427 62.4331 27.408C63.0517 27.1733 63.5637 26.768 63.9691 26.192C63.9904 26.3413 64.0011 26.4907 64.0011 26.64C64.0224 26.768 64.0331 26.8853 64.0331 26.992C64.0331 27.4827 63.9051 27.92 63.6491 28.304C63.4144 28.688 63.0837 29.0293 62.6571 29.328C62.2517 29.6053 61.7717 29.8187 61.2171 29.968C60.6837 30.1173 60.1184 30.192 59.5211 30.192C58.7957 30.192 58.0704 30.064 57.3451 29.808C56.6197 29.5307 55.9584 29.104 55.3611 28.528C54.7851 27.9307 54.3157 27.1627 53.9531 26.224C53.5904 25.2853 53.4091 24.144 53.4091 22.8C53.4091 21.904 53.5051 20.9333 53.6971 19.888C53.9104 18.8427 54.2517 17.872 54.7211 16.976C55.2117 16.08 55.8411 15.3333 56.6091 14.736C57.3984 14.1387 58.3691 13.84 59.5211 13.84C60.0544 13.84 60.5664 13.904 61.0571 14.032C61.5691 14.1387 62.0277 14.352 62.4331 14.672C62.8384 14.9707 63.1584 15.3867 63.3931 15.92C63.6491 16.4533 63.7771 17.1467 63.7771 18ZM56.8011 22.352C58.3157 22.1173 59.5104 21.584 60.3851 20.752C61.2811 19.92 61.7291 18.896 61.7291 17.68C61.7291 16.8693 61.5904 16.2933 61.3131 15.952C61.0357 15.5893 60.6411 15.408 60.1291 15.408C59.5744 15.408 59.0837 15.6213 58.6571 16.048C58.2517 16.4747 57.9104 17.0293 57.6331 17.712C57.3557 18.3733 57.1424 19.12 56.9931 19.952C56.8651 20.7627 56.8011 21.5627 56.8011 22.352ZM96.7724 14V29.328C97.3057 29.1573 97.775 28.9653 98.1804 28.752C98.607 28.5387 98.9697 28.2507 99.2684 27.888C99.5884 27.5253 99.8444 27.056 100.036 26.48C100.25 25.904 100.41 25.168 100.516 24.272H101.7C101.53 25.4027 101.306 26.3307 101.028 27.056C100.772 27.76 100.442 28.336 100.036 28.784C99.6524 29.2107 99.183 29.552 98.6284 29.808C98.095 30.0427 97.4764 30.2667 96.7724 30.48V32.528C96.7724 33.5307 96.6657 34.3733 96.4524 35.056C96.239 35.76 95.9404 36.3253 95.5564 36.752C95.1937 37.2 94.767 37.52 94.2764 37.712C93.807 37.904 93.3057 38 92.7724 38C91.7057 38 90.8737 37.6907 90.2764 37.072C89.679 36.4747 89.3804 35.7387 89.3804 34.864C89.3804 34.3093 89.4977 33.808 89.7324 33.36C89.9884 32.912 90.3084 32.496 90.6924 32.112C91.0977 31.7493 91.5457 31.4187 92.0364 31.12C92.5484 30.8427 93.0604 30.5973 93.5724 30.384V28.368C93.1457 28.9867 92.655 29.4453 92.1004 29.744C91.567 30.0427 91.023 30.192 90.4684 30.192C89.8497 30.192 89.263 30.1067 88.7084 29.936C88.1537 29.7653 87.6737 29.488 87.2684 29.104C86.863 28.6987 86.543 28.1867 86.3084 27.568C86.0737 26.928 85.9564 26.1493 85.9564 25.232V14H89.1564V24.88C89.1564 25.9253 89.3377 26.672 89.7004 27.12C90.063 27.5467 90.5217 27.76 91.0764 27.76C91.375 27.76 91.6737 27.6853 91.9724 27.536C92.271 27.3867 92.5377 27.1733 92.7724 26.896C93.007 26.5973 93.199 26.2453 93.3484 25.84C93.4977 25.4347 93.5724 24.9653 93.5724 24.432V14H96.7724ZM92.1644 36.336C92.7404 36.336 93.1137 36.112 93.2844 35.664C93.4764 35.2373 93.5724 34.6507 93.5724 33.904V31.664C92.5057 32.1547 91.7484 32.6347 91.3004 33.104C90.8524 33.5947 90.6284 34.1387 90.6284 34.736C90.6284 35.2267 90.7564 35.6107 91.0124 35.888C91.2897 36.1867 91.6737 36.336 92.1644 36.336ZM103.688 14V16.432C104.008 15.856 104.328 15.3973 104.648 15.056C104.989 14.6933 105.33 14.4267 105.672 14.256C106.013 14.0853 106.333 13.9787 106.632 13.936C106.952 13.872 107.25 13.84 107.528 13.84C108.488 13.84 109.256 14.0213 109.832 14.384C110.429 14.7467 110.877 15.216 111.176 15.792C111.474 16.3467 111.666 16.9653 111.752 17.648C111.858 18.3093 111.912 18.9493 111.912 19.568C111.912 19.952 111.901 20.3787 111.88 20.848C111.858 21.296 111.837 21.7653 111.816 22.256C111.794 22.7253 111.773 23.2053 111.752 23.696C111.73 24.1653 111.72 24.6027 111.72 25.008C111.72 25.1787 111.73 25.424 111.752 25.744C111.773 26.0427 111.826 26.3413 111.912 26.64C111.997 26.9387 112.136 27.2053 112.328 27.44C112.52 27.6533 112.797 27.76 113.16 27.76C113.65 27.76 114.088 27.4827 114.472 26.928C114.877 26.3733 115.208 25.488 115.464 24.272H116.648C116.413 25.616 116.114 26.6827 115.752 27.472C115.389 28.24 115.005 28.8267 114.6 29.232C114.194 29.6373 113.789 29.8933 113.384 30C112.978 30.128 112.605 30.192 112.264 30.192C111.581 30.192 111.005 30.064 110.536 29.808C110.066 29.5307 109.682 29.168 109.384 28.72C109.085 28.272 108.861 27.7493 108.712 27.152C108.584 26.5547 108.52 25.936 108.52 25.296C108.52 25.104 108.52 24.752 108.52 24.24C108.541 23.7067 108.552 23.1413 108.552 22.544C108.573 21.9467 108.584 21.3813 108.584 20.848C108.605 20.3147 108.616 19.9413 108.616 19.728C108.616 19.0453 108.562 18.48 108.456 18.032C108.349 17.584 108.2 17.232 108.008 16.976C107.816 16.72 107.592 16.5387 107.336 16.432C107.101 16.3253 106.845 16.272 106.568 16.272C105.906 16.272 105.33 16.5387 104.84 17.072C104.37 17.6053 103.986 18.5013 103.688 19.76V30H100.488V14H103.688ZM122.689 18.896C122.86 18.7467 122.988 18.512 123.073 18.192C123.18 17.872 123.233 17.5733 123.233 17.296C123.233 16.7413 123.073 16.3147 122.753 16.016C122.433 15.696 122.028 15.536 121.537 15.536C120.94 15.536 120.438 15.7493 120.033 16.176C119.649 16.6027 119.34 17.1467 119.105 17.808C118.87 18.448 118.7 19.1627 118.593 19.952C118.508 20.72 118.465 21.4667 118.465 22.192C118.465 23.344 118.561 24.2827 118.753 25.008C118.945 25.7333 119.212 26.2987 119.553 26.704C119.894 27.1093 120.289 27.3867 120.737 27.536C121.185 27.6853 121.654 27.76 122.145 27.76C123.532 27.76 124.673 27.2587 125.569 26.256C125.569 27.024 125.452 27.664 125.217 28.176C124.982 28.6667 124.662 29.0613 124.257 29.36C123.852 29.6587 123.393 29.872 122.881 30C122.369 30.128 121.846 30.192 121.313 30.192C120.545 30.192 119.788 30.0747 119.041 29.84C118.294 29.584 117.622 29.1573 117.025 28.56C116.449 27.9627 115.98 27.184 115.617 26.224C115.254 25.2427 115.073 24.016 115.073 22.544C115.073 21.712 115.148 20.7947 115.297 19.792C115.468 18.768 115.777 17.8187 116.225 16.944C116.673 16.048 117.281 15.312 118.049 14.736C118.838 14.1387 119.852 13.84 121.089 13.84C122.39 13.84 123.382 14.1813 124.065 14.864C124.769 15.5253 125.121 16.432 125.121 17.584C125.121 18.2027 125.014 18.6933 124.801 19.056C124.609 19.3973 124.3 19.568 123.873 19.568C123.404 19.568 123.009 19.344 122.689 18.896Z" fill="black"/>
</svg>
